# File created by Blade
# Date/Time:  Fri Jan 16 19:18:57 2015
# Frame Rate: 120.000 fps
#------------------------------------------------------
:FULLY-SPECIFIED
:DEGREES
865
root 20.040106 35.767056 -21.780733 -167.718986 -3.056896 -179.040353
Spine -24.395676 0.374794 -0.674294
Head 18.390458 -7.979658 4.822258
LeftShoulder -20.246084 -51.061239 52.956531
LeftArm 30.993867 -48.958789 -6.556785
LeftForeArm -38.627974 0.000000 91.670397
LeftHand 3.633687 -0.000000 9.368643
LeftHandThumb1 -26.253704 0.000000 33.147579
RightShoulder -14.979640 12.806623 -39.368085
RightArm 49.477097 79.482729 22.170246
RightForeArm -10.027821 -0.000000 75.766007
RightHand 2.157198 -0.000000 -3.095670
RightHandThumb1 -24.326973 -0.000000 -32.862282
LeftUpLeg -4.270364 8.029506 0.045609
LeftLeg -7.179590 -0.000000 0.000000
LeftFoot -18.100040 25.178515 -15.139721
LeftToeBase 25.136325 -0.000000 -0.000000
RightUpLeg -4.527465 -6.740869 1.468539
RightLeg -3.547330 -0.000000 0.000000
RightFoot -20.639287 -25.288479 18.783093
RightToeBase 22.278320 -0.000000 -0.000000
866
root 20.040706 35.766390 -21.775609 -167.678921 -3.016348 -179.037759
Spine -24.387349 0.309435 -0.702902
Head 18.198100 -7.941406 4.786278
LeftShoulder -20.412928 -50.833249 52.709642
LeftArm 29.992878 -48.560882 -5.784099
LeftForeArm -34.245369 -0.000000 91.495481
LeftHand 3.035295 -0.000000 10.710031
LeftHandThumb1 -26.253704 0.000000 33.147579
RightShoulder -14.999509 12.784371 -39.279212
RightArm 43.326193 79.102948 16.390508
RightForeArm -10.347770 -0.000000 74.888855
RightHand 1.921050 -0.000000 -3.900369
RightHandThumb1 -24.326973 -0.000000 -32.862282
LeftUpLeg -4.304723 8.038981 0.039738
LeftLeg -7.192883 -0.000000 0.000000
LeftFoot -18.115620 25.234107 -15.158520
LeftToeBase 25.207914 -0.000000 -0.000000
RightUpLeg -4.582389 -6.758201 1.479492
RightLeg -3.544115 -0.000000 0.000000
RightFoot -20.645621 -25.263773 18.760006
RightToeBase 22.309132 -0.000000 -0.000000
867
root 20.040782 35.766138 -21.771691 -167.644210 -2.973105 -179.026053
Spine -24.389154 0.229846 -0.719246
Head 18.032351 -7.839063 4.714671
LeftShoulder -20.570876 -50.687048 52.493833
LeftArm 28.912360 -47.958936 -4.867611
LeftForeArm -30.222376 0.000000 91.343032
LeftHand 2.344067 -0.000000 12.240896
LeftHandThumb1 -26.253704 0.000000 33.147579
RightShoulder -14.988736 12.667912 -39.083136
RightArm 38.397967 78.717602 11.744664
RightForeArm -10.866255 -0.000000 73.852434
RightHand 1.775823 -0.000000 -4.712515
RightHandThumb1 -24.326973 -0.000000 -32.862282
LeftUpLeg -4.327489 8.050842 0.040749
LeftLeg -7.220059 -0.000000 0.000000
LeftFoot -18.105087 25.226244 -15.143641
LeftToeBase 25.107782 -0.000000 -0.000000
RightUpLeg -4.631842 -6.781064 1.494035
RightLeg -3.541332 -0.000000 0.000000
RightFoot -20.597129 -25.235224 18.658743
RightToeBase 22.396992 -0.000000 -0.000000
868
root 20.041312 35.766461 -21.766576 -167.601229 -2.917125 -179.011920
Spine -24.403557 0.183287 -0.719678
Head 17.863755 -7.823655 4.658223
LeftShoulder -20.610710 -50.474969 52.067410
LeftArm 27.862319 -47.398638 -3.796021
LeftForeArm -26.942642 -0.000000 90.944315
LeftHand 1.931247 -0.000000 13.293253
LeftHandThumb1 -26.253704 0.000000 33.147579
RightShoulder -14.980777 12.433748 -38.866201
RightArm 33.728088 78.371120 7.313946
RightForeArm -11.368336 0.000000 72.746841
RightHand 1.520069 0.000000 -5.106164
RightHandThumb1 -24.326973 -0.000000 -32.862282
LeftUpLeg -4.363817 8.083630 0.039610
LeftLeg -7.235096 -0.000000 0.000000
LeftFoot -18.118023 25.285469 -15.164136
LeftToeBase 25.244041 -0.000000 -0.000000
RightUpLeg -4.697640 -6.769276 1.511398
RightLeg -3.529839 -0.000000 0.000000
RightFoot -20.594909 -25.186288 18.711463
RightToeBase 22.308377 -0.000000 -0.000000
